<mxfile host="app.diagrams.net" modified="2020-12-29T16:24:16.148Z" agent="5.0 (X11; Linux x86_64) AppleWebKit/537.36 (KHTML, like Gecko) Chrome/86.0.4240.198 Safari/537.36" etag="hFZclcXDk9sVo26fHWdj" version="14.1.3" type="github" pages="3">
  <diagram id="lc-HjPNuIND-x4zQ-w6r" name="Page-1">
    <mxGraphModel dx="1730" dy="955" grid="1" gridSize="10" guides="1" tooltips="1" connect="1" arrows="1" fold="1" page="1" pageScale="1" pageWidth="850" pageHeight="1100" math="0" shadow="0">
      <root>
        <mxCell id="0" />
        <mxCell id="1" parent="0" />
        <mxCell id="azEMAUA-ndeI8FJYWEdC-3" value="" style="edgeStyle=orthogonalEdgeStyle;rounded=0;orthogonalLoop=1;jettySize=auto;html=1;" edge="1" parent="1" source="azEMAUA-ndeI8FJYWEdC-1" target="azEMAUA-ndeI8FJYWEdC-2">
          <mxGeometry relative="1" as="geometry" />
        </mxCell>
        <mxCell id="azEMAUA-ndeI8FJYWEdC-1" value="START&amp;nbsp;" style="ellipse;whiteSpace=wrap;html=1;" vertex="1" parent="1">
          <mxGeometry x="365" y="80" width="120" height="60" as="geometry" />
        </mxCell>
        <mxCell id="azEMAUA-ndeI8FJYWEdC-5" value="" style="edgeStyle=orthogonalEdgeStyle;rounded=0;orthogonalLoop=1;jettySize=auto;html=1;" edge="1" parent="1" source="azEMAUA-ndeI8FJYWEdC-2" target="azEMAUA-ndeI8FJYWEdC-4">
          <mxGeometry relative="1" as="geometry" />
        </mxCell>
        <mxCell id="azEMAUA-ndeI8FJYWEdC-2" value="moderator()" style="shape=process;whiteSpace=wrap;html=1;backgroundOutline=1;" vertex="1" parent="1">
          <mxGeometry x="365" y="180" width="120" height="60" as="geometry" />
        </mxCell>
        <mxCell id="azEMAUA-ndeI8FJYWEdC-7" value="" style="edgeStyle=orthogonalEdgeStyle;rounded=0;orthogonalLoop=1;jettySize=auto;html=1;" edge="1" parent="1" source="azEMAUA-ndeI8FJYWEdC-4" target="azEMAUA-ndeI8FJYWEdC-6">
          <mxGeometry relative="1" as="geometry" />
        </mxCell>
        <mxCell id="azEMAUA-ndeI8FJYWEdC-4" value="admin()" style="shape=process;whiteSpace=wrap;html=1;backgroundOutline=1;" vertex="1" parent="1">
          <mxGeometry x="365" y="320" width="120" height="60" as="geometry" />
        </mxCell>
        <mxCell id="azEMAUA-ndeI8FJYWEdC-9" value="" style="edgeStyle=orthogonalEdgeStyle;rounded=0;orthogonalLoop=1;jettySize=auto;html=1;" edge="1" parent="1" source="azEMAUA-ndeI8FJYWEdC-6">
          <mxGeometry relative="1" as="geometry">
            <mxPoint x="425" y="600" as="targetPoint" />
          </mxGeometry>
        </mxCell>
        <mxCell id="azEMAUA-ndeI8FJYWEdC-6" value="voter()" style="shape=process;whiteSpace=wrap;html=1;backgroundOutline=1;" vertex="1" parent="1">
          <mxGeometry x="365" y="460" width="120" height="60" as="geometry" />
        </mxCell>
        <mxCell id="azEMAUA-ndeI8FJYWEdC-12" value="END" style="ellipse;whiteSpace=wrap;html=1;" vertex="1" parent="1">
          <mxGeometry x="365" y="600" width="120" height="50" as="geometry" />
        </mxCell>
      </root>
    </mxGraphModel>
  </diagram>
  <diagram id="FGqTbn4uUDMCCq0hhWzc" name="Page-2">
    <mxGraphModel dx="1730" dy="955" grid="1" gridSize="10" guides="1" tooltips="1" connect="1" arrows="1" fold="1" page="1" pageScale="1" pageWidth="850" pageHeight="1100" math="0" shadow="0">
      <root>
        <mxCell id="beBZu6bd3-lwC38DiTMI-0" />
        <mxCell id="beBZu6bd3-lwC38DiTMI-1" parent="beBZu6bd3-lwC38DiTMI-0" />
        <mxCell id="pylNYBIzTpEWxoZI1ah0-2" value="" style="edgeStyle=orthogonalEdgeStyle;rounded=0;orthogonalLoop=1;jettySize=auto;html=1;" edge="1" parent="beBZu6bd3-lwC38DiTMI-1" source="pylNYBIzTpEWxoZI1ah0-0" target="pylNYBIzTpEWxoZI1ah0-1">
          <mxGeometry relative="1" as="geometry" />
        </mxCell>
        <mxCell id="pylNYBIzTpEWxoZI1ah0-0" value="moderator()" style="strokeWidth=2;html=1;shape=mxgraph.flowchart.terminator;whiteSpace=wrap;" vertex="1" parent="beBZu6bd3-lwC38DiTMI-1">
          <mxGeometry x="173" y="70" width="138" height="60" as="geometry" />
        </mxCell>
        <mxCell id="pylNYBIzTpEWxoZI1ah0-4" value="" style="edgeStyle=orthogonalEdgeStyle;rounded=0;orthogonalLoop=1;jettySize=auto;html=1;" edge="1" parent="beBZu6bd3-lwC38DiTMI-1" source="pylNYBIzTpEWxoZI1ah0-1">
          <mxGeometry relative="1" as="geometry">
            <mxPoint x="242" y="300" as="targetPoint" />
          </mxGeometry>
        </mxCell>
        <mxCell id="pylNYBIzTpEWxoZI1ah0-1" value="Input usernameMOD&amp;nbsp;&lt;br&gt;and paswordMOD" style="shape=parallelogram;perimeter=parallelogramPerimeter;whiteSpace=wrap;html=1;fixedSize=1;strokeWidth=2;" vertex="1" parent="beBZu6bd3-lwC38DiTMI-1">
          <mxGeometry x="169.5" y="190" width="145" height="60" as="geometry" />
        </mxCell>
        <mxCell id="pylNYBIzTpEWxoZI1ah0-9" value="" style="edgeStyle=orthogonalEdgeStyle;rounded=0;orthogonalLoop=1;jettySize=auto;html=1;" edge="1" parent="beBZu6bd3-lwC38DiTMI-1" source="pylNYBIzTpEWxoZI1ah0-6" target="pylNYBIzTpEWxoZI1ah0-8">
          <mxGeometry relative="1" as="geometry" />
        </mxCell>
        <mxCell id="pylNYBIzTpEWxoZI1ah0-6" value="GET usernameMOD and passwordMOD from database&amp;nbsp;" style="rounded=1;whiteSpace=wrap;html=1;absoluteArcSize=1;arcSize=14;strokeWidth=2;" vertex="1" parent="beBZu6bd3-lwC38DiTMI-1">
          <mxGeometry x="150" y="300" width="185" height="50" as="geometry" />
        </mxCell>
        <mxCell id="pylNYBIzTpEWxoZI1ah0-11" value="" style="edgeStyle=orthogonalEdgeStyle;rounded=0;orthogonalLoop=1;jettySize=auto;html=1;" edge="1" parent="beBZu6bd3-lwC38DiTMI-1" source="pylNYBIzTpEWxoZI1ah0-8" target="pylNYBIzTpEWxoZI1ah0-10">
          <mxGeometry relative="1" as="geometry" />
        </mxCell>
        <mxCell id="pylNYBIzTpEWxoZI1ah0-26" value="" style="edgeStyle=orthogonalEdgeStyle;rounded=0;orthogonalLoop=1;jettySize=auto;html=1;entryX=0.5;entryY=0;entryDx=0;entryDy=0;" edge="1" parent="beBZu6bd3-lwC38DiTMI-1" source="pylNYBIzTpEWxoZI1ah0-8" target="pylNYBIzTpEWxoZI1ah0-25">
          <mxGeometry relative="1" as="geometry" />
        </mxCell>
        <mxCell id="pylNYBIzTpEWxoZI1ah0-8" value="if(usernameMOD.input == usernameMOD.database)" style="rhombus;whiteSpace=wrap;html=1;rounded=1;strokeWidth=2;arcSize=14;" vertex="1" parent="beBZu6bd3-lwC38DiTMI-1">
          <mxGeometry x="387" y="248.75" width="180" height="152.5" as="geometry" />
        </mxCell>
        <mxCell id="pylNYBIzTpEWxoZI1ah0-29" value="" style="edgeStyle=orthogonalEdgeStyle;rounded=0;orthogonalLoop=1;jettySize=auto;html=1;entryX=0.5;entryY=1;entryDx=0;entryDy=0;" edge="1" parent="beBZu6bd3-lwC38DiTMI-1" source="pylNYBIzTpEWxoZI1ah0-10" target="pylNYBIzTpEWxoZI1ah0-25">
          <mxGeometry relative="1" as="geometry">
            <mxPoint x="677" y="506.3529411764705" as="targetPoint" />
          </mxGeometry>
        </mxCell>
        <mxCell id="pylNYBIzTpEWxoZI1ah0-33" value="" style="edgeStyle=orthogonalEdgeStyle;rounded=0;orthogonalLoop=1;jettySize=auto;html=1;" edge="1" parent="beBZu6bd3-lwC38DiTMI-1" source="pylNYBIzTpEWxoZI1ah0-10" target="pylNYBIzTpEWxoZI1ah0-32">
          <mxGeometry relative="1" as="geometry" />
        </mxCell>
        <mxCell id="pylNYBIzTpEWxoZI1ah0-10" value="if(passwordMOD.input == passwordMOD.database)" style="rhombus;whiteSpace=wrap;html=1;rounded=1;strokeWidth=2;arcSize=14;" vertex="1" parent="beBZu6bd3-lwC38DiTMI-1">
          <mxGeometry x="387" y="430" width="180" height="152.5" as="geometry" />
        </mxCell>
        <mxCell id="pylNYBIzTpEWxoZI1ah0-12" value="TRUE" style="text;html=1;strokeColor=none;fillColor=none;align=center;verticalAlign=middle;whiteSpace=wrap;rounded=0;" vertex="1" parent="beBZu6bd3-lwC38DiTMI-1">
          <mxGeometry x="497" y="410" width="40" height="20" as="geometry" />
        </mxCell>
        <mxCell id="pylNYBIzTpEWxoZI1ah0-25" value="Return (&quot;Wrong username or password&quot;)" style="shape=parallelogram;perimeter=parallelogramPerimeter;whiteSpace=wrap;html=1;fixedSize=1;rounded=1;strokeWidth=2;arcSize=14;" vertex="1" parent="beBZu6bd3-lwC38DiTMI-1">
          <mxGeometry x="650" y="360" width="120" height="60" as="geometry" />
        </mxCell>
        <mxCell id="pylNYBIzTpEWxoZI1ah0-27" value="FALSE" style="text;html=1;strokeColor=none;fillColor=none;align=center;verticalAlign=middle;whiteSpace=wrap;rounded=0;" vertex="1" parent="beBZu6bd3-lwC38DiTMI-1">
          <mxGeometry x="600" y="300" width="40" height="20" as="geometry" />
        </mxCell>
        <mxCell id="pylNYBIzTpEWxoZI1ah0-30" value="FALSE" style="text;html=1;strokeColor=none;fillColor=none;align=center;verticalAlign=middle;whiteSpace=wrap;rounded=0;" vertex="1" parent="beBZu6bd3-lwC38DiTMI-1">
          <mxGeometry x="600" y="480" width="40" height="20" as="geometry" />
        </mxCell>
        <mxCell id="pylNYBIzTpEWxoZI1ah0-32" value="moderatorLoggedin()" style="shape=process;whiteSpace=wrap;html=1;backgroundOutline=1;rounded=1;strokeWidth=2;arcSize=14;" vertex="1" parent="beBZu6bd3-lwC38DiTMI-1">
          <mxGeometry x="173" y="476.25" width="162.5" height="60" as="geometry" />
        </mxCell>
      </root>
    </mxGraphModel>
  </diagram>
  <diagram id="5cppFHU-NY1uOYzubb2s" name="Page-3">
    <mxGraphModel dx="1038" dy="573" grid="1" gridSize="10" guides="1" tooltips="1" connect="1" arrows="1" fold="1" page="1" pageScale="1" pageWidth="850" pageHeight="1100" math="0" shadow="0">
      <root>
        <mxCell id="_YXboK0QQqIMsctFZSqQ-0" />
        <mxCell id="_YXboK0QQqIMsctFZSqQ-1" parent="_YXboK0QQqIMsctFZSqQ-0" />
        <mxCell id="_YXboK0QQqIMsctFZSqQ-2" value="" style="edgeStyle=orthogonalEdgeStyle;rounded=0;orthogonalLoop=1;jettySize=auto;html=1;" edge="1" parent="_YXboK0QQqIMsctFZSqQ-1" source="_YXboK0QQqIMsctFZSqQ-3" target="_YXboK0QQqIMsctFZSqQ-5">
          <mxGeometry relative="1" as="geometry" />
        </mxCell>
        <mxCell id="_YXboK0QQqIMsctFZSqQ-3" value="moderatorLoggedin()" style="strokeWidth=2;html=1;shape=mxgraph.flowchart.terminator;whiteSpace=wrap;" vertex="1" parent="_YXboK0QQqIMsctFZSqQ-1">
          <mxGeometry x="173" y="70" width="138" height="60" as="geometry" />
        </mxCell>
        <mxCell id="_YXboK0QQqIMsctFZSqQ-4" value="" style="edgeStyle=orthogonalEdgeStyle;rounded=0;orthogonalLoop=1;jettySize=auto;html=1;" edge="1" parent="_YXboK0QQqIMsctFZSqQ-1" source="_YXboK0QQqIMsctFZSqQ-5">
          <mxGeometry relative="1" as="geometry">
            <mxPoint x="242.00000000000023" y="300" as="targetPoint" />
          </mxGeometry>
        </mxCell>
        <mxCell id="_YXboK0QQqIMsctFZSqQ-5" value="Input usernameMOD&amp;nbsp;&lt;br&gt;and paswordMOD" style="shape=parallelogram;perimeter=parallelogramPerimeter;whiteSpace=wrap;html=1;fixedSize=1;strokeWidth=2;" vertex="1" parent="_YXboK0QQqIMsctFZSqQ-1">
          <mxGeometry x="169.5" y="190" width="145" height="60" as="geometry" />
        </mxCell>
        <mxCell id="_YXboK0QQqIMsctFZSqQ-6" value="" style="edgeStyle=orthogonalEdgeStyle;rounded=0;orthogonalLoop=1;jettySize=auto;html=1;" edge="1" parent="_YXboK0QQqIMsctFZSqQ-1" source="_YXboK0QQqIMsctFZSqQ-7" target="_YXboK0QQqIMsctFZSqQ-10">
          <mxGeometry relative="1" as="geometry" />
        </mxCell>
        <mxCell id="_YXboK0QQqIMsctFZSqQ-7" value="GET usernameMOD and passwordMOD from database&amp;nbsp;" style="rounded=1;whiteSpace=wrap;html=1;absoluteArcSize=1;arcSize=14;strokeWidth=2;" vertex="1" parent="_YXboK0QQqIMsctFZSqQ-1">
          <mxGeometry x="150" y="300" width="185" height="50" as="geometry" />
        </mxCell>
        <mxCell id="_YXboK0QQqIMsctFZSqQ-8" value="" style="edgeStyle=orthogonalEdgeStyle;rounded=0;orthogonalLoop=1;jettySize=auto;html=1;" edge="1" parent="_YXboK0QQqIMsctFZSqQ-1" source="_YXboK0QQqIMsctFZSqQ-10" target="_YXboK0QQqIMsctFZSqQ-13">
          <mxGeometry relative="1" as="geometry" />
        </mxCell>
        <mxCell id="_YXboK0QQqIMsctFZSqQ-9" value="" style="edgeStyle=orthogonalEdgeStyle;rounded=0;orthogonalLoop=1;jettySize=auto;html=1;entryX=0.5;entryY=0;entryDx=0;entryDy=0;" edge="1" parent="_YXboK0QQqIMsctFZSqQ-1" source="_YXboK0QQqIMsctFZSqQ-10" target="_YXboK0QQqIMsctFZSqQ-15">
          <mxGeometry relative="1" as="geometry" />
        </mxCell>
        <mxCell id="_YXboK0QQqIMsctFZSqQ-10" value="if(usernameMOD.input == usernameMOD.database)" style="rhombus;whiteSpace=wrap;html=1;rounded=1;strokeWidth=2;arcSize=14;" vertex="1" parent="_YXboK0QQqIMsctFZSqQ-1">
          <mxGeometry x="387" y="248.75" width="180" height="152.5" as="geometry" />
        </mxCell>
        <mxCell id="_YXboK0QQqIMsctFZSqQ-11" value="" style="edgeStyle=orthogonalEdgeStyle;rounded=0;orthogonalLoop=1;jettySize=auto;html=1;entryX=0.5;entryY=1;entryDx=0;entryDy=0;" edge="1" parent="_YXboK0QQqIMsctFZSqQ-1" source="_YXboK0QQqIMsctFZSqQ-13" target="_YXboK0QQqIMsctFZSqQ-15">
          <mxGeometry relative="1" as="geometry">
            <mxPoint x="677" y="506.3529411764705" as="targetPoint" />
          </mxGeometry>
        </mxCell>
        <mxCell id="_YXboK0QQqIMsctFZSqQ-12" value="" style="edgeStyle=orthogonalEdgeStyle;rounded=0;orthogonalLoop=1;jettySize=auto;html=1;" edge="1" parent="_YXboK0QQqIMsctFZSqQ-1" source="_YXboK0QQqIMsctFZSqQ-13" target="_YXboK0QQqIMsctFZSqQ-18">
          <mxGeometry relative="1" as="geometry" />
        </mxCell>
        <mxCell id="_YXboK0QQqIMsctFZSqQ-13" value="if(passwordMOD.input == passwordMOD.database)" style="rhombus;whiteSpace=wrap;html=1;rounded=1;strokeWidth=2;arcSize=14;" vertex="1" parent="_YXboK0QQqIMsctFZSqQ-1">
          <mxGeometry x="387" y="430" width="180" height="152.5" as="geometry" />
        </mxCell>
        <mxCell id="_YXboK0QQqIMsctFZSqQ-14" value="TRUE" style="text;html=1;strokeColor=none;fillColor=none;align=center;verticalAlign=middle;whiteSpace=wrap;rounded=0;" vertex="1" parent="_YXboK0QQqIMsctFZSqQ-1">
          <mxGeometry x="497" y="410" width="40" height="20" as="geometry" />
        </mxCell>
        <mxCell id="_YXboK0QQqIMsctFZSqQ-15" value="Return (&quot;Wrong username or password&quot;)" style="shape=parallelogram;perimeter=parallelogramPerimeter;whiteSpace=wrap;html=1;fixedSize=1;rounded=1;strokeWidth=2;arcSize=14;" vertex="1" parent="_YXboK0QQqIMsctFZSqQ-1">
          <mxGeometry x="650" y="360" width="120" height="60" as="geometry" />
        </mxCell>
        <mxCell id="_YXboK0QQqIMsctFZSqQ-16" value="FALSE" style="text;html=1;strokeColor=none;fillColor=none;align=center;verticalAlign=middle;whiteSpace=wrap;rounded=0;" vertex="1" parent="_YXboK0QQqIMsctFZSqQ-1">
          <mxGeometry x="600" y="300" width="40" height="20" as="geometry" />
        </mxCell>
        <mxCell id="_YXboK0QQqIMsctFZSqQ-17" value="FALSE" style="text;html=1;strokeColor=none;fillColor=none;align=center;verticalAlign=middle;whiteSpace=wrap;rounded=0;" vertex="1" parent="_YXboK0QQqIMsctFZSqQ-1">
          <mxGeometry x="600" y="480" width="40" height="20" as="geometry" />
        </mxCell>
        <mxCell id="_YXboK0QQqIMsctFZSqQ-18" value="moderatorLoggedin()" style="shape=process;whiteSpace=wrap;html=1;backgroundOutline=1;rounded=1;strokeWidth=2;arcSize=14;" vertex="1" parent="_YXboK0QQqIMsctFZSqQ-1">
          <mxGeometry x="173" y="476.25" width="162.5" height="60" as="geometry" />
        </mxCell>
      </root>
    </mxGraphModel>
  </diagram>
</mxfile>
